<svg xmlns="http://www.w3.org/2000/svg" style="display:none">
  <symbol id="gw-icon-search" viewBox="0 0 24 24">
    <circle cx="11" cy="11" r="6"></circle>
    <path d="M20 20l-4.2-4.2"></path>
  </symbol>

  <symbol id="gw-icon-pin" viewBox="0 0 24 24">
    <path d="M12 21s-5-4.6-5-9a5 5 0 1 1 10 0c0 4.4-5 9-5 9z"></path>
    <circle cx="12" cy="12" r="1.8"></circle>
  </symbol>

  <symbol id="gw-icon-chat" viewBox="0 0 24 24">
    <path d="M6 17l-2 3v-4a7 7 0 1 1 2 1z"></path>
  </symbol>

  <symbol id="gw-icon-bell" viewBox="0 0 24 24">
    <path d="M15 18H9"></path>
    <path d="M18 16H6c1.1-1.1 2-2.8 2-5V9a4 4 0 1 1 8 0v2c0 2.2.9 3.9 2 5z"></path>
  </symbol>

  <symbol id="gw-icon-menu" viewBox="0 0 24 24">
    <path d="M4 7h16"></path>
    <path d="M4 12h16"></path>
    <path d="M4 17h16"></path>
  </symbol>

  <symbol id="gw-icon-map" viewBox="0 0 24 24">
    <path d="M3 6l6-2 6 2 6-2v14l-6 2-6-2-6 2V6z"></path>
    <path d="M9 4v14"></path>
    <path d="M15 6v14"></path>
  </symbol>

  <symbol id="gw-icon-calendar" viewBox="0 0 24 24">
    <rect x="3" y="5" width="18" height="16" rx="2"></rect>
    <path d="M16 3v4"></path>
    <path d="M8 3v4"></path>
    <path d="M3 10h18"></path>
  </symbol>

  <symbol id="gw-icon-home" viewBox="0 0 24 24">
    <path d="M4 10.5L12 4l8 6.5"></path>
    <path d="M6 9.5V20h12V9.5"></path>
  </symbol>

  <symbol id="gw-icon-users" viewBox="0 0 24 24">
    <circle cx="9" cy="9" r="3"></circle>
    <circle cx="17" cy="10" r="2.5"></circle>
    <path d="M4.5 19a4.5 4.5 0 0 1 9 0"></path>
    <path d="M14.5 18a3.5 3.5 0 0 1 5 0"></path>
  </symbol>

  <symbol id="gw-icon-profile" viewBox="0 0 24 24">
    <circle cx="12" cy="8" r="3.5"></circle>
    <path d="M5 20a7 7 0 0 1 14 0"></path>
  </symbol>
</svg>
